<svg xmlns="http://www.w3.org/2000/svg" viewBox="0 0 255.74 185.7"><defs><style>.a{fill:#fff;}</style></defs><title>picto-business</title><path class="a" d="M0,15c8.5,2.84,17.06,5.48,25.47,8.56,9.44,3.46,17.8,2.08,26.61-2.88A261.56,261.56,0,0,1,88.84,3.13c10.77-4,21.28-1.06,30.47,7.44l-4.8,2.84c-9.61,5.65-19.39,11-28.78,17S72.16,45.6,74.16,56.63C76,67,82.7,73.67,93,76.49c5.93,1.63,11.52.3,16.94-2.2,8-3.69,16-7.39,24-11,8.89-4,14.84-3,21.7,3.88q23.17,23.14,46.32,46.31c3.63,3.62,5.2,7.85,3.61,12.7-1.32,4-4.43,6.52-8.72,7.35-4.61.9-8-1.29-11.13-4.24q-8.31-7.87-16.59-15.76l-1.07.79a16,16,0,0,0,1.61,2.89c4.45,5.18,9,10.29,13.48,15.43,4.9,5.61,5.11,12.06.55,16.55-4.32,4.24-10.86,4.17-16.22-.4-6-5.08-11.75-10.35-17.67-15.48a16.77,16.77,0,0,0-6.72-3.81,43.26,43.26,0,0,0,3.09,3.76c5,4.89,10.09,9.69,15.11,14.58,3.52,3.43,4.83,7.68,3.32,12.33-1.39,4.29-4.79,7.49-9.17,7.25a19.78,19.78,0,0,1-10.55-4.23c-5.3-4.26-9.84-9.45-14.76-14.2-1.35-1.31-2.91-2.41-4.37-3.61l-0.86.87c4.22,4.8,8.66,9.43,12.57,14.48,2,2.64,4.14,5.9,4.51,9.07,0.94,8.19-7.33,14-15,11.08-5.28-2-9.61-8.43-9.79-14.1-0.34-10.23-5.17-17.54-14.34-22.24a11.46,11.46,0,0,1-4.7-5.12,27.56,27.56,0,0,0-12.35-13.2,11.17,11.17,0,0,1-4.57-4.66,26,26,0,0,0-12.25-12.6,8.79,8.79,0,0,1-4-3.88C60.36,94.41,52,89.31,41,89.31s-19.87,4.88-25.14,15.1c-0.6,1.16-1.27,2.29-2,3.57L0,104Q0,59.5,0,15Z"/><path class="a" d="M166,0c12.78,5.22,22.28,15,32.06,24.1,7.88,7.31,15.56,9.35,25.79,6.34s21-4.69,31.9-7v77.92c-9.9,1.52-19.83,3.41-29.85,4.42-5.57.56-10-2.77-14-6.67Q187.27,74.61,162.5,50.24c-7.25-7.16-12.78-8.22-22.05-3.64C129.56,52,118.87,57.74,108,63.17c-8.18,4.09-14.77,3.18-20-2.42-5.48-5.83-5.46-13.6.37-19.11a40.1,40.1,0,0,1,7.73-5.44q27.3-15.6,54.71-31c3.59-2,7.47-3.48,11.22-5.2h4Z"/><path class="a" d="M54.44,118c12.7,0.35,16.38,4.22,16.81,17.25,13.22,0.78,18.08,6.26,16.14,18.72h3.93c11.47,0.06,17.78,10.79,12.36,21-3.46,6.53-13.35,11.57-20.69,10.54-8.49-1.19-12.1-7.3-9.17-15.52,0.5-1.4,1-2.8,1.6-4.62-5.78.65-11.54,3.73-16.64-1-5.26-4.89-2.6-10.34-.9-16.11-5.56.64-11.15,3.92-16-1.26C37.3,142.13,39,137,41.46,131.12c-2.16.38-3.69,0.59-5.2,0.92-8.94,2-15.06-3.4-14.19-12.46C23,110,31.85,101.06,40.49,100.94,50,100.8,55.51,107.4,54.44,118Z"/></svg>