<?xml version="1.0" encoding="utf-8"?>
<!-- Generator: Adobe Illustrator 19.2.0, SVG Export Plug-In . SVG Version: 6.00 Build 0)  -->
<svg version="1.1" xmlns="http://www.w3.org/2000/svg" xmlns:xlink="http://www.w3.org/1999/xlink" x="0px" y="0px"
	 viewBox="0 0 256 256.4" style="enable-background:new 0 0 256 256.4;" xml:space="preserve">
<style type="text/css">
	.st0{fill:#FFFFFF;}
	.st1{fill:none;}
</style>
<g id="Calque_2">
</g>
<g id="Calque_1">
	<title>picto-recherche</title>
	<path class="st0" d="M159.9,0c48.5,0.1,89.7,36.5,95.4,84.5c6.5,52.6-30.8,100.6-83.4,107.1c-6.1,0.8-12.2,0.9-18.3,0.5
		c-11.8-0.7-23.4-3.7-34.1-9c-3.5-1.8-5.3-1.2-8,1.5c-20.7,21-41.5,41.9-62.5,62.6c-13.6,13.5-34.2,11.7-44.4-3.9
		c-7.5-11.4-5.7-25.8,4.5-36c20.7-20.8,41.4-41.5,62.2-62.2c2.8-2.8,3.6-4.8,1.7-8.8C45.5,78.1,84,8.7,148,1.1
		C151.9,0.7,155.9,0.4,159.9,0z M160.3,16.3c-44.3-0.2-80,35.7-80.2,80.5c-0.2,43,36,79.2,79.2,79.4c44.2,0.2,80.7-35.5,80.7-79
		C240.1,52.5,204.6,16.5,160.3,16.3z M81.7,154.9c-20.2,20.1-41.2,41.1-62.1,62c-1,1.1-2.4,2.2-2.7,3.5c-1,3.4-2.3,7-1.9,10.4
		c0.5,5.4,4.2,8.9,9.4,10.5c5.7,1.8,10.5,0,14.6-4.1c20.7-20.7,41.5-41.4,62.2-62.2c0.5-0.6,0.9-1.2,1.3-1.9l-1.4,1L81.7,154.9z"/>
	<path class="st1" d="M160.3,16.3c44.3,0.2,79.8,36.1,79.7,80.9c0,43.4-36.5,79.1-80.7,79c-43.2-0.1-79.4-36.3-79.2-79.4
		C80.3,52.1,116,16.2,160.3,16.3z M104.1,93.3c-0.2,4.7,1,7,3.8,6.8c4.3-0.2,3.9-3.4,4.4-6.5c0.8-5.1,1.4-10.3,3.4-15
		c7.8-18.6,22.1-28.6,42.2-30.3c3.4-0.3,7.1-0.7,5.8-5.1c-0.4-1.5-4.1-3-6.3-3C129.4,41,105,65.4,104.1,93.3L104.1,93.3z"/>
	<path class="st1" d="M81.7,154.9l19.2,19.2l1.4-1c-0.4,0.7-0.8,1.3-1.3,1.9c-20.7,20.7-41.4,41.5-62.2,62.2
		c-4.1,4.1-8.8,5.9-14.5,4.1c-5.2-1.6-8.9-5.1-9.4-10.5c-0.3-3.4,1-7,1.9-10.4c0.4-1.3,1.7-2.5,2.7-3.5
		C40.5,195.9,61.5,175,81.7,154.9z"/>
	<path class="st0" d="M104.1,93.4c0.9-27.9,25.3-52.4,53.3-53c2.2,0,5.9,1.5,6.3,3c1.2,4.4-2.5,4.8-5.8,5.1
		c-20.1,1.7-34.3,11.7-42.2,30.3c-2,4.7-2.6,9.9-3.4,15c-0.5,3-0.1,6.3-4.4,6.5C105.1,100.3,103.9,98,104.1,93.4z"/>
</g>
</svg>
