<svg xmlns="http://www.w3.org/2000/svg" xmlns:xlink="http://www.w3.org/1999/xlink" viewBox="0 0 27.1 18.1"><defs><style>.a{fill:none;}.b{fill:#231f20;}.c{fill:#fff;}.d{fill:#bf0a30;}.e{fill:#002868;}.f{clip-path:url(#a);}.g{fill:#25346c;}.h{fill:#cf172c;}</style><clipPath id="a"><polygon class="a" points="27.1 0 0 18.1 6.35 18.1 13.59 18.1 27.1 18.1 27.1 0"/></clipPath></defs><title>gb</title><path class="b" d="M0,18.1V0H27.1V18.1H0ZM27,18v0ZM0.12,18H27V0.11H0.12V18Z"/><rect class="c" x="0.06" y="12.51" width="26.98" height="1.38"/><rect class="d" x="0.06" y="11.12" width="26.98" height="1.38"/><rect class="c" x="0.06" y="15.28" width="26.98" height="1.38"/><rect class="d" x="0.06" y="16.66" width="26.98" height="1.38"/><rect class="d" x="0.06" y="13.89" width="26.98" height="1.38"/><rect class="c" x="0.06" y="9.74" width="26.98" height="1.38"/><rect class="d" x="0.06" y="5.59" width="26.98" height="1.38"/><rect class="c" x="0.06" y="1.44" width="26.98" height="1.38"/><rect class="d" x="0.06" y="2.82" width="26.98" height="1.38"/><rect class="d" x="0.06" y="8.36" width="26.98" height="1.38"/><rect class="d" x="0.06" y="0.06" width="26.98" height="1.38"/><rect class="c" x="0.06" y="4.21" width="26.98" height="1.38"/><rect class="c" x="0.06" y="6.97" width="26.98" height="1.38"/><rect class="e" x="0.06" y="0.06" width="10.79" height="9.7"/><polygon class="c" points="8.17 0.57 8.24 0.8 8.48 0.8 8.29 0.95 8.37 1.18 8.17 1.03 7.97 1.18 8.05 0.95 7.85 0.8 8.1 0.8 8.17 0.57"/><polygon class="c" points="8.17 2.59 8.24 2.82 8.48 2.82 8.29 2.96 8.37 3.19 8.17 3.05 7.97 3.19 8.05 2.96 7.85 2.82 8.1 2.82 8.17 2.59"/><polygon class="c" points="8.17 4.61 8.24 4.83 8.48 4.83 8.29 4.98 8.37 5.21 8.17 5.06 7.97 5.21 8.05 4.98 7.85 4.83 8.1 4.83 8.17 4.61"/><polygon class="c" points="8.17 6.67 8.24 6.9 8.48 6.9 8.29 7.04 8.37 7.27 8.17 7.13 7.97 7.27 8.05 7.04 7.85 6.9 8.1 6.9 8.17 6.67"/><polygon class="c" points="8.17 8.63 8.24 8.86 8.48 8.86 8.29 9.01 8.37 9.23 8.17 9.09 7.97 9.23 8.05 9.01 7.85 8.86 8.1 8.86 8.17 8.63"/><polygon class="c" points="6.36 0.57 6.44 0.8 6.68 0.8 6.48 0.95 6.56 1.18 6.36 1.03 6.17 1.18 6.24 0.95 6.05 0.8 6.29 0.8 6.36 0.57"/><polygon class="c" points="6.36 2.59 6.44 2.82 6.68 2.82 6.48 2.96 6.56 3.19 6.36 3.05 6.17 3.19 6.24 2.96 6.05 2.82 6.29 2.82 6.36 2.59"/><polygon class="c" points="6.36 4.61 6.44 4.83 6.68 4.83 6.48 4.98 6.56 5.21 6.36 5.06 6.17 5.21 6.24 4.98 6.05 4.83 6.29 4.83 6.36 4.61"/><polygon class="c" points="6.36 6.67 6.44 6.9 6.68 6.9 6.48 7.04 6.56 7.27 6.36 7.13 6.17 7.27 6.24 7.04 6.05 6.9 6.29 6.9 6.36 6.67"/><polygon class="c" points="6.36 8.63 6.44 8.86 6.68 8.86 6.48 9.01 6.56 9.23 6.36 9.09 6.17 9.23 6.24 9.01 6.05 8.86 6.29 8.86 6.36 8.63"/><polygon class="c" points="4.56 0.57 4.63 0.8 4.87 0.8 4.68 0.95 4.75 1.18 4.56 1.03 4.36 1.18 4.44 0.95 4.24 0.8 4.48 0.8 4.56 0.57"/><polygon class="c" points="4.56 2.59 4.63 2.82 4.87 2.82 4.68 2.96 4.75 3.19 4.56 3.05 4.36 3.19 4.44 2.96 4.24 2.82 4.48 2.82 4.56 2.59"/><polygon class="c" points="4.56 4.61 4.63 4.83 4.87 4.83 4.68 4.98 4.75 5.21 4.56 5.06 4.36 5.21 4.44 4.98 4.24 4.83 4.48 4.83 4.56 4.61"/><polygon class="c" points="4.56 6.67 4.63 6.9 4.87 6.9 4.68 7.04 4.75 7.27 4.56 7.13 4.36 7.27 4.44 7.04 4.24 6.9 4.48 6.9 4.56 6.67"/><polygon class="c" points="4.56 8.63 4.63 8.86 4.87 8.86 4.68 9.01 4.75 9.23 4.56 9.09 4.36 9.23 4.44 9.01 4.24 8.86 4.48 8.86 4.56 8.63"/><polygon class="c" points="2.75 0.57 2.83 0.8 3.07 0.8 2.87 0.95 2.94 1.18 2.75 1.03 2.56 1.18 2.63 0.95 2.43 0.8 2.67 0.8 2.75 0.57"/><polygon class="c" points="2.75 2.59 2.83 2.82 3.07 2.82 2.87 2.96 2.94 3.19 2.75 3.05 2.56 3.19 2.63 2.96 2.43 2.82 2.67 2.82 2.75 2.59"/><polygon class="c" points="2.75 4.61 2.83 4.83 3.07 4.83 2.87 4.98 2.94 5.21 2.75 5.06 2.56 5.21 2.63 4.98 2.43 4.83 2.67 4.83 2.75 4.61"/><polygon class="c" points="2.75 6.67 2.83 6.9 3.07 6.9 2.87 7.04 2.94 7.27 2.75 7.13 2.56 7.27 2.63 7.04 2.43 6.9 2.67 6.9 2.75 6.67"/><polygon class="c" points="2.75 8.63 2.83 8.86 3.07 8.86 2.87 9.01 2.94 9.23 2.75 9.09 2.56 9.23 2.63 9.01 2.43 8.86 2.67 8.86 2.75 8.63"/><polygon class="c" points="0.94 0.57 1.02 0.8 1.26 0.8 1.06 0.95 1.14 1.18 0.94 1.03 0.75 1.18 0.82 0.95 0.63 0.8 0.87 0.8 0.94 0.57"/><polygon class="c" points="0.94 2.59 1.02 2.82 1.26 2.82 1.06 2.96 1.14 3.19 0.94 3.05 0.75 3.19 0.82 2.96 0.63 2.82 0.87 2.82 0.94 2.59"/><polygon class="c" points="0.94 4.61 1.02 4.83 1.26 4.83 1.06 4.98 1.14 5.21 0.94 5.06 0.75 5.21 0.82 4.98 0.63 4.83 0.87 4.83 0.94 4.61"/><polygon class="c" points="0.94 6.67 1.02 6.9 1.26 6.9 1.06 7.04 1.14 7.27 0.94 7.13 0.75 7.27 0.82 7.04 0.63 6.9 0.87 6.9 0.94 6.67"/><polygon class="c" points="0.94 8.63 1.02 8.86 1.26 8.86 1.06 9.01 1.14 9.23 0.94 9.09 0.75 9.23 0.82 9.01 0.63 8.86 0.87 8.86 0.94 8.63"/><polygon class="c" points="9.09 1.58 9.16 1.81 9.41 1.81 9.21 1.95 9.29 2.18 9.09 2.04 8.89 2.18 8.97 1.95 8.77 1.81 9.02 1.81 9.09 1.58"/><polygon class="c" points="9.09 3.66 9.16 3.89 9.41 3.89 9.21 4.03 9.29 4.26 9.09 4.12 8.89 4.26 8.97 4.03 8.77 3.89 9.02 3.89 9.09 3.66"/><polygon class="c" points="9.07 5.7 9.15 5.93 9.39 5.93 9.19 6.07 9.27 6.3 9.07 6.16 8.88 6.3 8.95 6.07 8.76 5.93 9 5.93 9.07 5.7"/><polygon class="c" points="9.05 7.71 9.13 7.94 9.37 7.94 9.18 8.09 9.25 8.31 9.05 8.17 8.86 8.31 8.93 8.09 8.74 7.94 8.98 7.94 9.05 7.71"/><polygon class="c" points="7.28 1.58 7.36 1.81 7.6 1.81 7.4 1.95 7.48 2.18 7.28 2.04 7.09 2.18 7.16 1.95 6.97 1.81 7.21 1.81 7.28 1.58"/><polygon class="c" points="7.28 3.66 7.36 3.89 7.6 3.89 7.4 4.03 7.48 4.26 7.28 4.12 7.09 4.26 7.16 4.03 6.97 3.89 7.21 3.89 7.28 3.66"/><polygon class="c" points="7.27 5.7 7.34 5.93 7.58 5.93 7.39 6.07 7.46 6.3 7.27 6.16 7.07 6.3 7.14 6.07 6.95 5.93 7.19 5.93 7.27 5.7"/><polygon class="c" points="7.25 7.71 7.32 7.94 7.56 7.94 7.37 8.09 7.44 8.31 7.25 8.17 7.05 8.31 7.13 8.09 6.93 7.94 7.17 7.94 7.25 7.71"/><polygon class="c" points="5.48 1.51 5.55 1.74 5.79 1.74 5.6 1.88 5.67 2.11 5.48 1.97 5.28 2.11 5.36 1.88 5.16 1.74 5.4 1.74 5.48 1.51"/><polygon class="c" points="5.48 3.59 5.55 3.82 5.79 3.82 5.6 3.96 5.67 4.19 5.48 4.05 5.28 4.19 5.36 3.96 5.16 3.82 5.4 3.82 5.48 3.59"/><polygon class="c" points="5.46 5.63 5.53 5.86 5.78 5.86 5.58 6 5.66 6.23 5.46 6.09 5.26 6.23 5.34 6 5.14 5.86 5.38 5.86 5.46 5.63"/><polygon class="c" points="5.44 7.64 5.52 7.87 5.76 7.87 5.56 8.01 5.64 8.24 5.44 8.1 5.25 8.24 5.32 8.01 5.13 7.87 5.37 7.87 5.44 7.64"/><polygon class="c" points="3.67 1.49 3.75 1.72 3.99 1.72 3.79 1.86 3.87 2.09 3.67 1.95 3.48 2.09 3.55 1.86 3.35 1.72 3.6 1.72 3.67 1.49"/><polygon class="c" points="3.67 3.57 3.75 3.8 3.99 3.8 3.79 3.94 3.87 4.17 3.67 4.03 3.48 4.17 3.55 3.94 3.35 3.8 3.6 3.8 3.67 3.57"/><polygon class="c" points="3.65 5.61 3.73 5.84 3.97 5.84 3.77 5.98 3.85 6.21 3.65 6.07 3.46 6.21 3.53 5.98 3.34 5.84 3.58 5.84 3.65 5.61"/><polygon class="c" points="3.63 7.62 3.71 7.85 3.95 7.85 3.75 7.99 3.83 8.22 3.63 8.08 3.44 8.22 3.52 7.99 3.32 7.85 3.56 7.85 3.63 7.62"/><polygon class="c" points="1.86 1.45 1.94 1.68 2.18 1.68 1.99 1.82 2.06 2.06 1.86 1.91 1.67 2.06 1.74 1.82 1.55 1.68 1.79 1.68 1.86 1.45"/><polygon class="c" points="1.86 3.53 1.94 3.76 2.18 3.76 1.99 3.9 2.06 4.13 1.86 3.99 1.67 4.13 1.74 3.9 1.55 3.76 1.79 3.76 1.86 3.53"/><polygon class="c" points="1.85 5.57 1.92 5.8 2.16 5.8 1.97 5.94 2.04 6.17 1.85 6.03 1.65 6.17 1.73 5.94 1.53 5.8 1.77 5.8 1.85 5.57"/><polygon class="c" points="1.83 7.59 1.9 7.82 2.14 7.82 1.95 7.96 2.02 8.19 1.83 8.04 1.63 8.19 1.71 7.96 1.51 7.82 1.75 7.82 1.83 7.59"/><polygon class="c" points="9.98 0.57 10.05 0.8 10.29 0.8 10.1 0.95 10.17 1.18 9.98 1.03 9.78 1.18 9.85 0.95 9.66 0.8 9.9 0.8 9.98 0.57"/><polygon class="c" points="9.98 2.59 10.05 2.82 10.29 2.82 10.1 2.96 10.17 3.19 9.98 3.05 9.78 3.19 9.85 2.96 9.66 2.82 9.9 2.82 9.98 2.59"/><polygon class="c" points="9.98 4.61 10.05 4.83 10.29 4.83 10.1 4.98 10.17 5.21 9.98 5.06 9.78 5.21 9.85 4.98 9.66 4.83 9.9 4.83 9.98 4.61"/><polygon class="c" points="9.98 6.67 10.05 6.9 10.29 6.9 10.1 7.04 10.17 7.27 9.98 7.13 9.78 7.27 9.85 7.04 9.66 6.9 9.9 6.9 9.98 6.67"/><polygon class="c" points="9.98 8.63 10.05 8.86 10.29 8.86 10.1 9.01 10.17 9.23 9.98 9.09 9.78 9.23 9.85 9.01 9.66 8.86 9.9 8.86 9.98 8.63"/><g class="f"><path class="b" d="M0,18.1V0H27.1V18.1H0ZM27,18h0ZM0.1,18H27V0.1H0.1V18Z"/><rect class="g" x="0.1" y="0.1" width="27" height="18"/><polygon class="c" points="27 6.4 16.2 6.4 16.2 0.1 10.8 0.1 10.8 6.4 0.1 6.4 0.1 11.7 10.8 11.7 10.8 18 16.2 18 16.2 11.7 27 11.7 27 6.4"/><polygon class="c" points="27 16 3.2 0.1 0.1 0.1 0.1 2.1 23.9 18 27 18 27 16"/><polygon class="c" points="0.1 16 23.9 0.1 27 0.1 27 2.1 3.2 18 0.1 18 0.1 16"/><polygon class="h" points="27 7.5 15.1 7.5 15.1 0.1 12 0.1 12 7.5 0.1 7.5 0.1 10.6 12 10.6 12 18 15.1 18 15.1 10.6 27 10.6 27 7.5"/><polygon class="h" points="27 18 27 16.6 19.8 11.7 17.6 11.7 27 18"/><polygon class="h" points="27 0.1 24.9 0.1 16.2 5.8 16.2 6.4 17.6 6.4 27 0.1"/><polygon class="h" points="9.4 11.7 0.1 18 0.1 18 2.1 18 10.8 12.2 10.8 11.7 9.4 11.7"/><polygon class="h" points="0.1 0.1 0.1 1.5 7.4 6.4 9.5 6.4 0.1 0.1"/></g></svg>