<?xml version="1.0" encoding="utf-8"?>
<!-- Generator: Adobe Illustrator 19.2.0, SVG Export Plug-In . SVG Version: 6.00 Build 0)  -->
<svg version="1.2" baseProfile="tiny" id="Calque_1"
	 xmlns="http://www.w3.org/2000/svg" xmlns:xlink="http://www.w3.org/1999/xlink" x="0px" y="0px" viewBox="0 0 27.1 18.1"
	 xml:space="preserve">
<g>
	<path fill="#231F20" d="M0,18.1V0h27.1v18v0.1H0z M27,18L27,18L27,18z M0.1,18H27l0-17.9H0.1V18z"/>
	<rect x="0.1" y="0.1" fill="#25346C" width="27" height="18"/>
	<polygon fill="#FFFFFF" points="27,6.4 16.2,6.4 16.2,0.1 10.8,0.1 10.8,6.4 0.1,6.4 0.1,11.7 10.8,11.7 10.8,18 16.2,18 
		16.2,11.7 27,11.7 	"/>
	<polygon fill="#FFFFFF" points="27,16 3.2,0.1 0.1,0.1 0.1,2.1 23.9,18 27,18 	"/>
	<polygon fill="#FFFFFF" points="0.1,16 23.9,0.1 27,0.1 27,2.1 3.2,18 0.1,18 	"/>
	<polygon fill="#CF172C" points="27,7.5 15.1,7.5 15.1,0.1 12,0.1 12,7.5 0.1,7.5 0.1,10.6 12,10.6 12,18 15.1,18 15.1,10.6 
		27,10.6 	"/>
	<polygon fill="#CF172C" points="27,18 27,16.6 19.8,11.7 17.6,11.7 	"/>
	<polygon fill="#CF172C" points="27,0.1 24.9,0.1 16.2,5.8 16.2,6.4 17.6,6.4 27,0.1 	"/>
	<polygon fill="#CF172C" points="9.4,11.7 0.1,18 0.1,18 2.1,18 10.8,12.2 10.8,11.7 	"/>
	<polygon fill="#CF172C" points="0.1,0.1 0.1,1.5 7.4,6.4 9.5,6.4 	"/>
</g>
</svg>
