<svg xmlns="http://www.w3.org/2000/svg" viewBox="0 0 449.02 142.67"><defs><style>.a,.b{fill:#fff;}.b{stroke:#37b34a;stroke-miterlimit:10;stroke-width:0.09px;}</style></defs><title>logo-algama</title><path class="a" d="M318.73,135a99.32,99.32,0,0,0,91.54-7.79c15.94-10.1,26.36-19.94,36-39.86,0,0,11.78-28.3-13.78-34.41-21.06-5-17.28,33.09-47.45,61.39S317.72,134.23,316.87,134Z"/><path class="a" d="M135,11.24a99.28,99.28,0,0,0-91.86,0C26.43,20,15.24,28.94,4,48c0,0-14.08,27.21,10.88,35.45C35.41,90.21,34.79,51.9,67.2,26.24S136,12.1,136.79,12.37Z"/><path class="a" d="M86.53,77L77,54.25,67.68,77H86.53ZM51.47,94.7L70.53,49.26q2.21-5.15,6.38-5.15,4.74,0,7,5.22l18.9,45.38H94L89.54,84.25H64.74L60.27,94.7h-8.8Z"/><path class="a" d="M109.6,82.1V44.6h8.26V82q0,3,1.59,4.22t5.11,1.22h21.68V94.7H124.74q-7.2,0-11-3.15-4.09-3.22-4.09-9.45"/><path class="a" d="M242,77l-9.56-22.77L223.2,77H242ZM207,94.7L226,49.26q2.21-5.15,6.38-5.15,4.74,0,7,5.22l18.9,45.38h-8.79l-4.43-10.45h-24.8L215.79,94.7H207Z"/><path class="a" d="M268,94.7V51.9q0-5.66,3.92-7.23a12.81,12.81,0,0,1,4.81-1.07c3.7,0,5.73,2.11,7.58,6.31l12.1,25.56,12.62-25.58c2.25-4,4-6.29,7.62-6.29a12.91,12.91,0,0,1,4.84,1.07q3.85,1.58,3.85,7.23V94.7h-8.26V51.83L304.36,78.06a16.47,16.47,0,0,1-2.77,4.39,6.48,6.48,0,0,1-4.84,1.77,6.67,6.67,0,0,1-4.9-1.85,15.84,15.84,0,0,1-2.71-4.31L276.3,51.83V94.7H268Z"/><path class="a" d="M369.29,77l-9.55-22.77L350.44,77h18.85ZM334.23,94.7l19.06-45.44q2.21-5.15,6.38-5.15,4.74,0,6.95,5.22l18.9,45.38h-8.79L372.3,84.25H347.5L343,94.7h-8.8Z"/><path class="a" d="M189.46,66.14h-5.05v6.94h5.05v9.23a2.56,2.56,0,0,1-.08.79q-0.74,4.36-6.05,4.37H169.58a4.91,4.91,0,0,1-4.42-4.22,8,8,0,0,1-.16-1.08V57.27a5.34,5.34,0,0,1,1.15-3.83q1.14-1.18,4.17-1.54l0.41-.07h26.8V44.6H172q-15.3,0-15.3,13.17v24a12.86,12.86,0,0,0,1.76,7.09,13.56,13.56,0,0,0,6.1,4.65,18.33,18.33,0,0,0,7.28,1.22h11.45a18.18,18.18,0,0,0,8-1.5A11.94,11.94,0,0,0,196.42,88a13.36,13.36,0,0,0,1.31-6.44V66.14h-8.26Z"/><path class="a" d="M51.44,127.06v-9.61q0-3.26,2.94-3.26H56.3a4,4,0,0,1,.53.05,2.54,2.54,0,0,1,1.92,1.08,2.48,2.48,0,0,1,1.92-1.08,3.93,3.93,0,0,1,.53-0.05h1.92q2.93,0,2.93,3.26v9.61H63.93v-9.43a1.11,1.11,0,0,0-1.28-1.22H60.78a1.16,1.16,0,0,0-.85,1.35v9.31H57.82v-9.43l0-.12a1.22,1.22,0,0,0-1.32-1.1H54.8l-0.24,0a1.1,1.1,0,0,0-.73.27,1.45,1.45,0,0,0-.27.76v9.61H51.44Z"/><path class="a" d="M72.28,124.74a2.73,2.73,0,0,0,1.2.19h2.88q1.76,0,1.76-1.27v-2.08a1.36,1.36,0,0,0-1.49-1.37h-3.4a1.39,1.39,0,0,0-1.51,1.37v2.08a1.11,1.11,0,0,0,.56,1.08m-2.67-1.13v-1.54a4.71,4.71,0,0,1,.75-2.79,2.88,2.88,0,0,1,2.5-1.2h5.25V117.2a0.87,0.87,0,0,0-.24-0.61,0.75,0.75,0,0,0-.56-0.26H69.61V114.2h7.54a2.79,2.79,0,0,1,3,2.38,5.11,5.11,0,0,1,0,.59v6.61a3.11,3.11,0,0,1-.46,1.64,3,3,0,0,1-2.64,1.64H72.88A3.07,3.07,0,0,1,71,126.4a3.43,3.43,0,0,1-1.24-1.57,3.54,3.54,0,0,1-.2-1.22"/><path class="a" d="M85.93,123.7a1.17,1.17,0,0,0,1.12,1.23h3.76a1.17,1.17,0,0,0,.83-0.32,1.4,1.4,0,0,0,.56-1.23v-5.68a1.13,1.13,0,0,0-1.15-1.37H87.3a1.25,1.25,0,0,0-1.39,1.43v5.8Zm-2.14,0v-6.27a3,3,0,0,1,.94-2.4,3.64,3.64,0,0,1,2.52-.83h5v-4.29h2.11v13.52a3.89,3.89,0,0,1-.91,2.5,2.81,2.81,0,0,1-2.27,1.13H87a3.11,3.11,0,0,1-1.26-.32,3.06,3.06,0,0,1-1.92-3"/><path class="a" d="M100,120.57l6.21-2.92v-0.2a1.07,1.07,0,0,0-1.29-1.12h-3.48A1.36,1.36,0,0,0,100,118v2.61Zm-2.11,3.11v-5.75q0-3.73,4-3.73H105a3.37,3.37,0,0,1,2.45.87,3.21,3.21,0,0,1,.9,2.42V119L100,122.92v0.56a2.38,2.38,0,0,0,.39,1.1,1.36,1.36,0,0,0,1.07.34h7v2.13h-7.13a3.47,3.47,0,0,1-2.49-.93,3.22,3.22,0,0,1-1-2.45"/><path class="a" d="M119.08,127.06V113.2a3.39,3.39,0,0,1,.1-0.81,3.05,3.05,0,0,1,3.3-2.47h0.89V112h-1.12a1.39,1.39,0,0,0-1.07,1.54v0.62h2.18v2.13h-2.18v10.73h-2.11Z"/><path class="a" d="M125.63,127.06v-9.46a6.89,6.89,0,0,1,0-.73,3.07,3.07,0,0,1,.72-1.85,3.22,3.22,0,0,1,1.83-.77,3.62,3.62,0,0,1,.56-0.05H130v2.13h-1.05a1.1,1.1,0,0,0-1.18,1.3v9.43h-2.11Z"/><path class="a" d="M136,124.93h3.45a1.39,1.39,0,0,0,1.49-1.65v-5.41a1.34,1.34,0,0,0-1.49-1.55H136a1.36,1.36,0,0,0-1.54,1.55v5.33a1.44,1.44,0,0,0,1.54,1.72m-3.65-1v-6.69q0-2.65,2.84-3l0.29,0h4.17a4.12,4.12,0,0,1,.51,0q2.89,0.42,2.89,3v6.69a3.08,3.08,0,0,1-1.75,2.77,3.22,3.22,0,0,1-1.65.39h-4a3.06,3.06,0,0,1-3.18-2.33,1.14,1.14,0,0,1-.15-0.83"/><path class="a" d="M146.63,127.06v-9.61q0-3.26,2.94-3.26h1.92a4,4,0,0,1,.53.05,2.54,2.54,0,0,1,1.92,1.08,2.48,2.48,0,0,1,1.92-1.08,3.93,3.93,0,0,1,.53-0.05h1.92q2.93,0,2.94,3.26v9.61h-2.11v-9.43a1.11,1.11,0,0,0-1.28-1.22H156a1.16,1.16,0,0,0-.85,1.35v9.31H153v-9.43l0-.12a1.22,1.22,0,0,0-1.32-1.1H150l-0.24,0a1.1,1.1,0,0,0-.73.27,1.45,1.45,0,0,0-.27.76v9.61h-2.11Z"/><path class="a" d="M172.67,127.25v-9.88q0-3.35,3-3.35h2a3.91,3.91,0,0,1,.55.05,2.61,2.61,0,0,1,2,1.11,2.54,2.54,0,0,1,2-1.11,3.83,3.83,0,0,1,.55-0.05h2q3,0,3,3.35v9.88h-2.16v-9.71a1.14,1.14,0,0,0-1.32-1.26h-1.91a1.19,1.19,0,0,0-.87,1.39v9.58H179.2v-9.71l0-.13a1.26,1.26,0,0,0-1.35-1.13H176.1l-0.25,0a1.12,1.12,0,0,0-.75.28,1.46,1.46,0,0,0-.28.78v9.88h-2.16Z"/><path class="b" d="M172.67,127.25v-9.88q0-3.35,3-3.35h2a3.91,3.91,0,0,1,.55.05,2.61,2.61,0,0,1,2,1.11,2.54,2.54,0,0,1,2-1.11,3.83,3.83,0,0,1,.55-0.05h2q3,0,3,3.35v9.88h-2.16v-9.71a1.14,1.14,0,0,0-1.32-1.26h-1.91a1.19,1.19,0,0,0-.87,1.39v9.58H179.2v-9.71l0-.13a1.26,1.26,0,0,0-1.35-1.13H176.1l-0.25,0a1.12,1.12,0,0,0-.75.28,1.46,1.46,0,0,0-.28.78v9.88h-2.16Z"/><path class="a" d="M191.93,127.25h2.4V114.11h-2.4v13.14Zm-0.44-16a1.41,1.41,0,0,1,.47-1.07,1.7,1.7,0,0,1,2.31,0,1.46,1.46,0,0,1,.48,1.09,1.37,1.37,0,0,1-.46,1,1.78,1.78,0,0,1-2.32,0,1.43,1.43,0,0,1-.47-1.09"/><path class="b" d="M191.93,127.25h2.4V114.11h-2.4v13.14Zm-0.44-16a1.41,1.41,0,0,1,.47-1.07,1.7,1.7,0,0,1,2.31,0,1.46,1.46,0,0,1,.48,1.09,1.37,1.37,0,0,1-.46,1,1.78,1.78,0,0,1-2.32,0A1.43,1.43,0,0,1,191.5,111.23Z"/><path class="a" d="M198.59,123.9v-6.55a3.12,3.12,0,0,1,1-2.52,4,4,0,0,1,2.63-.81h5.08v2.19h-5.1a1.27,1.27,0,0,0-1.45,1.41v5.77a1.76,1.76,0,0,0,.42,1.17,1.37,1.37,0,0,0,1.1.49h5.06v2.19H202.3a3.87,3.87,0,0,1-1.92-.45,3.17,3.17,0,0,1-1.8-2.9"/><path class="b" d="M198.59,123.9v-6.55a3.12,3.12,0,0,1,1-2.52,4,4,0,0,1,2.63-.81h5.08v2.19h-5.1a1.27,1.27,0,0,0-1.45,1.41v5.77a1.76,1.76,0,0,0,.42,1.17,1.37,1.37,0,0,0,1.1.49h5.06v2.19H202.3a3.87,3.87,0,0,1-1.92-.45A3.17,3.17,0,0,1,198.59,123.9Z"/><path class="a" d="M210.59,127.25v-9.73a5.78,5.78,0,0,1,.05-0.76,3.08,3.08,0,0,1,.77-1.9,3.58,3.58,0,0,1,2-.79A4,4,0,0,1,214,114h1.29v2.19h-1.14a1.16,1.16,0,0,0-1.28,1.34v9.7h-2.29Z"/><path class="b" d="M210.59,127.25v-9.73a5.78,5.78,0,0,1,.05-0.76,3.08,3.08,0,0,1,.77-1.9,3.58,3.58,0,0,1,2-.79A4,4,0,0,1,214,114h1.29v2.19h-1.14a1.16,1.16,0,0,0-1.28,1.34v9.7h-2.29Z"/><path class="a" d="M222.32,125.11h3.56a1.44,1.44,0,0,0,1.54-1.7v-5.56a1.39,1.39,0,0,0-1.54-1.59h-3.56a1.41,1.41,0,0,0-1.59,1.59v5.49a1.49,1.49,0,0,0,1.59,1.77M218.55,124v-6.88q0-2.72,2.93-3.08l0.3,0h4.31a3.86,3.86,0,0,1,.53.05q3,0.43,3,3V124a3.16,3.16,0,0,1-1.8,2.85,3.35,3.35,0,0,1-1.71.4H222a3.17,3.17,0,0,1-3.29-2.39,1.16,1.16,0,0,1-.15-0.86"/><path class="b" d="M222.32,125.11h3.56a1.44,1.44,0,0,0,1.54-1.7v-5.56a1.39,1.39,0,0,0-1.54-1.59h-3.56a1.41,1.41,0,0,0-1.59,1.59v5.49A1.49,1.49,0,0,0,222.32,125.11ZM218.55,124v-6.88q0-2.72,2.93-3.08l0.3,0h4.31a3.86,3.86,0,0,1,.53.05q3,0.43,3,3V124a3.16,3.16,0,0,1-1.8,2.85,3.35,3.35,0,0,1-1.71.4H222a3.17,3.17,0,0,1-3.29-2.39A1.16,1.16,0,0,1,218.55,124Z"/><path class="a" d="M236.18,124.9a2.81,2.81,0,0,0,1.24.2h3q1.82,0,1.82-1.31v-2.14a1.4,1.4,0,0,0-1.54-1.41h-3.51q-1.57.18-1.57,1.41v2.14a1.14,1.14,0,0,0,.58,1.11m-2.77-1.16v-1.59a4.82,4.82,0,0,1,.78-2.87,3,3,0,0,1,2.59-1.24h5.43v-0.9a0.88,0.88,0,0,0-.25-0.62,0.77,0.77,0,0,0-.58-0.27h-8v-2.19h7.8a2.88,2.88,0,0,1,3.13,2.45,5.46,5.46,0,0,1,0,.6v6.8a3.19,3.19,0,0,1-.48,1.69,3.14,3.14,0,0,1-2.73,1.69H236.8a3.2,3.2,0,0,1-1.91-.68,3.56,3.56,0,0,1-1.28-1.61,3.66,3.66,0,0,1-.2-1.26"/><path class="b" d="M236.18,124.9a2.81,2.81,0,0,0,1.24.2h3q1.82,0,1.82-1.31v-2.14a1.4,1.4,0,0,0-1.54-1.41h-3.51q-1.57.18-1.57,1.41v2.14A1.14,1.14,0,0,0,236.18,124.9Zm-2.77-1.16v-1.59a4.82,4.82,0,0,1,.78-2.87,3,3,0,0,1,2.59-1.24h5.43v-0.9a0.88,0.88,0,0,0-.25-0.62,0.77,0.77,0,0,0-.58-0.27h-8v-2.19h7.8a2.88,2.88,0,0,1,3.13,2.45,5.46,5.46,0,0,1,0,.6v6.8a3.19,3.19,0,0,1-.48,1.69,3.14,3.14,0,0,1-2.73,1.69H236.8a3.2,3.2,0,0,1-1.91-.68,3.56,3.56,0,0,1-1.28-1.61A3.66,3.66,0,0,1,233.41,123.74Z"/><path class="a" d="M257.51,123.65a1.38,1.38,0,0,0,1.42,1.38h3.89a1.1,1.1,0,0,0,.87-0.37,1.46,1.46,0,0,0,.31-1v-5.95c0-1-.4-1.48-1.19-1.48h-4a1.35,1.35,0,0,0-1.26,1.46v5.95Zm-2.28,7.84v-2.18h7.12a1.42,1.42,0,0,0,1.66-1.55v-0.55h-5.26a3.2,3.2,0,0,1-2.45-1.05,3.6,3.6,0,0,1-1-2.53v-6.21a3,3,0,0,1,2-3.1,3.11,3.11,0,0,1,1.13-.25h4.64a2.76,2.76,0,0,1,3.06,2.6,4.56,4.56,0,0,1,0,.57v11a2.91,2.91,0,0,1-1.1,2.45,4.24,4.24,0,0,1-2.66.78h-7.2Z"/><path class="b" d="M257.51,123.65a1.38,1.38,0,0,0,1.42,1.38h3.89a1.1,1.1,0,0,0,.87-0.37,1.46,1.46,0,0,0,.31-1v-5.95c0-1-.4-1.48-1.19-1.48h-4a1.35,1.35,0,0,0-1.26,1.46v5.95Zm-2.28,7.84v-2.18h7.12a1.42,1.42,0,0,0,1.66-1.55v-0.55h-5.26a3.2,3.2,0,0,1-2.45-1.05,3.6,3.6,0,0,1-1-2.53v-6.21a3,3,0,0,1,2-3.1,3.11,3.11,0,0,1,1.13-.25h4.64a2.76,2.76,0,0,1,3.06,2.6,4.56,4.56,0,0,1,0,.57v11a2.91,2.91,0,0,1-1.1,2.45,4.24,4.24,0,0,1-2.66.78h-7.2Z"/><path class="a" d="M272.91,124.9a2.81,2.81,0,0,0,1.24.2h3q1.82,0,1.82-1.31v-2.14a1.4,1.4,0,0,0-1.54-1.41H273.9q-1.57.18-1.57,1.41v2.14a1.14,1.14,0,0,0,.58,1.11m-2.76-1.16v-1.59a4.82,4.82,0,0,1,.78-2.87,3,3,0,0,1,2.59-1.24H279v-0.9a0.89,0.89,0,0,0-.25-0.62,0.77,0.77,0,0,0-.58-0.27h-8v-2.19H278a2.88,2.88,0,0,1,3.14,2.45,5.82,5.82,0,0,1,0,.6v6.8a3.2,3.2,0,0,1-.48,1.69,3.14,3.14,0,0,1-2.73,1.69h-4.39a3.21,3.21,0,0,1-1.91-.68,3.56,3.56,0,0,1-1.28-1.61,3.66,3.66,0,0,1-.2-1.26"/><path class="b" d="M272.91,124.9a2.81,2.81,0,0,0,1.24.2h3q1.82,0,1.82-1.31v-2.14a1.4,1.4,0,0,0-1.54-1.41H273.9q-1.57.18-1.57,1.41v2.14A1.14,1.14,0,0,0,272.91,124.9Zm-2.76-1.16v-1.59a4.82,4.82,0,0,1,.78-2.87,3,3,0,0,1,2.59-1.24H279v-0.9a0.89,0.89,0,0,0-.25-0.62,0.77,0.77,0,0,0-.58-0.27h-8v-2.19H278a2.88,2.88,0,0,1,3.14,2.45,5.82,5.82,0,0,1,0,.6v6.8a3.2,3.2,0,0,1-.48,1.69,3.14,3.14,0,0,1-2.73,1.69h-4.39a3.21,3.21,0,0,1-1.91-.68,3.56,3.56,0,0,1-1.28-1.61A3.66,3.66,0,0,1,270.15,123.74Z"/><path class="a" d="M287.13,120.62l6.42-3v-0.2a1.11,1.11,0,0,0-1.34-1.16h-3.6a1.4,1.4,0,0,0-1.49,1.67v2.69Zm-2.18,3.2V117.9q0-3.83,4.09-3.83h3.26a3.5,3.5,0,0,1,2.53.9,3.29,3.29,0,0,1,.92,2.48V119l-8.63,4v0.58a2.42,2.42,0,0,0,.4,1.14,1.4,1.4,0,0,0,1.11.35h7.27v2.19h-7.38a3.59,3.59,0,0,1-2.57-1,3.3,3.3,0,0,1-1-2.52"/><path class="b" d="M287.13,120.62l6.42-3v-0.2a1.11,1.11,0,0,0-1.34-1.16h-3.6a1.4,1.4,0,0,0-1.49,1.67v2.69Zm-2.18,3.2V117.9q0-3.83,4.09-3.83h3.26a3.5,3.5,0,0,1,2.53.9,3.29,3.29,0,0,1,.92,2.48V119l-8.63,4v0.58a2.42,2.42,0,0,0,.4,1.14,1.4,1.4,0,0,0,1.11.35h7.27v2.19h-7.38a3.59,3.59,0,0,1-2.57-1A3.3,3.3,0,0,1,284.94,123.82Z"/><rect class="a" x="248.57" y="110.28" width="2.41" height="17.02"/><rect class="b" x="248.57" y="110.28" width="2.41" height="17.02"/></svg>