<?xml version="1.0" encoding="UTF-8" standalone="no"?>
<svg width="51px" height="45px" viewBox="0 0 51 45" version="1.1" xmlns="http://www.w3.org/2000/svg" xmlns:xlink="http://www.w3.org/1999/xlink" xmlns:sketch="http://www.bohemiancoding.com/sketch/ns">
    <!-- Generator: Sketch 3.4.4 (17249) - http://www.bohemiancoding.com/sketch -->
    <title>coupe</title>
    <desc>Created with Sketch.</desc>
    <defs>
        <path id="path-1" d="M0,0.528387097 L50.2408286,0.528387097 L50.2408286,45 L0,45 L0,0.528387097 Z"></path>
        <path id="path-3" d="M0,0.528387097 L50.2408286,0.528387097 L50.2408286,45 L0,45"></path>
        <path id="path-5" d="M0,0.528387097 L50.2408286,0.528387097 L50.2408286,45 L0,45"></path>
    </defs>
    <g id="Page-1" stroke="none" stroke-width="1" fill="none" fill-rule="evenodd" sketch:type="MSPage">
        <g id="coupe" sketch:type="MSArtboardGroup">
            <mask id="mask-2" sketch:name="Clip 2" fill="white">
                <use xlink:href="#path-1"></use>
            </mask>
            <g id="Clip-2"></g>
            <path d="M13.3050257,4.45195161 L13.3050257,16.5511452 C13.3050257,23.0427581 18.6061114,28.3222742 25.1209971,28.3222742 C31.63734,28.3222742 36.9384257,23.0427581 36.9384257,16.5511452 L36.9384257,4.45195161 L13.3050257,4.45195161 Z M25.1209971,32.2459839 C16.4305971,32.2459839 9.36636857,25.2056613 9.36636857,16.5511452 L9.36636857,2.49082258 C9.36636857,1.40646774 10.2464829,0.528241935 11.3349686,0.528241935 L38.9055686,0.528241935 C39.9940543,0.528241935 40.8756257,1.40646774 40.8756257,2.49082258 L40.8756257,16.5511452 C40.8756257,25.2056613 33.8055686,32.2459839 25.1209971,32.2459839 L25.1209971,32.2459839 Z" id="Fill-1" fill="#FFFFFF" sketch:type="MSShapeGroup" mask="url(#mask-2)"></path>
            <mask id="mask-4" sketch:name="Clip 5" fill="white">
                <use xlink:href="#path-3"></use>
            </mask>
            <g id="Clip-5"></g>
            <path d="M10.5003171,17.735371 C4.70817429,17.735371 0.000145714286,13.0423065 0.000145714286,7.27069355 L0.000145714286,2.49053226 C0.000145714286,1.40617742 0.88026,0.527951613 1.96874571,0.527951613 L11.4868029,0.527951613 C12.5738314,0.527951613 13.4539457,1.40617742 13.4539457,2.49053226 C13.4539457,3.5748871 12.5738314,4.45166129 11.4868029,4.45166129 L3.93880286,4.45166129 L3.93880286,7.27069355 C3.93880286,10.8779516 6.88223143,13.8116613 10.5003171,13.8116613 C11.59026,13.8116613 12.4703743,14.6898871 12.4703743,15.7727903 C12.4703743,16.8571452 11.59026,17.735371 10.5003171,17.735371" id="Fill-4" fill="#FFFFFF" sketch:type="MSShapeGroup" mask="url(#mask-4)"></path>
            <mask id="mask-6" sketch:name="Clip 8" fill="white">
                <use xlink:href="#path-5"></use>
            </mask>
            <g id="Clip-8"></g>
            <path d="M39.7413857,17.735371 C38.6529,17.735371 37.7713286,16.8571452 37.7713286,15.7727903 C37.7713286,14.6898871 38.6529,13.8116613 39.7413857,13.8116613 C43.3565571,13.8116613 46.3043571,10.8779516 46.3043571,7.27069355 L46.3043571,4.45166129 L38.7563571,4.45166129 C37.6678714,4.45166129 36.7877571,3.5748871 36.7877571,2.49053226 C36.7877571,1.40617742 37.6678714,0.527951613 38.7563571,0.527951613 L48.2715,0.527951613 C49.3614429,0.527951613 50.2415571,1.40617742 50.2415571,2.49053226 L50.2415571,7.27069355 C50.2415571,13.0423065 45.5306143,17.735371 39.7413857,17.735371" id="Fill-7" fill="#FFFFFF" sketch:type="MSShapeGroup" mask="url(#mask-6)"></path>
            <path d="M24.8681829,39.4387258 C23.77824,39.4387258 22.8966686,38.5605 22.8966686,37.4761452 L22.8966686,30.9380806 C22.8966686,29.8551774 23.77824,28.9755 24.8681829,28.9755 C25.9552114,28.9755 26.8367829,29.8551774 26.8367829,30.9380806 L26.8367829,37.4761452 C26.8367829,38.5605 25.9552114,39.4387258 24.8681829,39.4387258" id="Fill-10" fill="#FFFFFF" sketch:type="MSShapeGroup" mask="url(#mask-6)"></path>
            <path d="M40.2948086,45 L9.44272286,45 C8.35423714,45 7.47412286,44.1217742 7.47412286,43.038871 C7.47412286,41.9545161 8.35423714,41.0762903 9.44272286,41.0762903 L40.2948086,41.0762903 C41.3832943,41.0762903 42.2648657,41.9545161 42.2648657,43.038871 C42.2648657,44.1217742 41.3832943,45 40.2948086,45" id="Fill-12" fill="#FFFFFF" sketch:type="MSShapeGroup" mask="url(#mask-6)"></path>
            <path d="M30.9415543,39.9292258 L18.7977257,39.9292258 C17.70924,39.9292258 16.8276686,39.051 16.8276686,37.9666452 C16.8276686,36.8837419 17.70924,36.0055161 18.7977257,36.0055161 L30.9415543,36.0055161 C32.0285829,36.0055161 32.9101543,36.8837419 32.9101543,37.9666452 C32.9101543,39.051 32.0285829,39.9292258 30.9415543,39.9292258" id="Fill-14" fill="#FFFFFF" sketch:type="MSShapeGroup" mask="url(#mask-6)"></path>
        </g>
    </g>
</svg>