<?xml version="1.0" encoding="UTF-8" standalone="no"?>
<svg width="47px" height="45px" viewBox="0 0 47 45" version="1.1" xmlns="http://www.w3.org/2000/svg" xmlns:xlink="http://www.w3.org/1999/xlink" xmlns:sketch="http://www.bohemiancoding.com/sketch/ns">
    <!-- Generator: Sketch 3.4.4 (17249) - http://www.bohemiancoding.com/sketch -->
    <title>etoile</title>
    <desc>Created with Sketch.</desc>
    <defs>
        <path id="path-1" d="M0,0.761707317 L46.1343256,0.761707317 L46.1343256,45 L0,45"></path>
    </defs>
    <g id="Page-1" stroke="none" stroke-width="1" fill="none" fill-rule="evenodd" sketch:type="MSPage">
        <g id="etoile" sketch:type="MSArtboardGroup">
            <mask id="mask-2" sketch:name="Clip 2" fill="white">
                <use xlink:href="#path-1"></use>
            </mask>
            <g id="Clip-2"></g>
            <path d="M23.0658512,31.7545244 C23.4440372,31.7545244 23.8178512,31.8708659 24.1392,32.1057439 L32.7216186,38.3651341 L29.4425488,28.2346463 C29.1988047,27.4795244 29.4655023,26.653061 30.1049209,26.1865976 L38.6873395,19.9250122 L28.0795488,19.9250122 C27.2882,19.9250122 26.5897581,19.4124512 26.3438279,18.6562317 L23.0658512,8.52684146 L19.7889674,18.6562317 C19.5474093,19.4124512 18.8445953,19.9250122 18.0521535,19.9250122 L7.44436279,19.9250122 L16.0278744,26.1865976 C16.6694791,26.653061 16.9372698,27.4795244 16.6902465,28.2346463 L13.4100837,38.3651341 L21.9925023,32.1057439 C22.3138512,31.8708659 22.6909442,31.7545244 23.0658512,31.7545244 M36.1952465,44.9987927 C35.8214326,44.9987927 35.4421535,44.8835488 35.1218977,44.6486707 L23.0658512,35.8539146 L11.0098047,44.6486707 C10.3682,45.1173293 9.50580465,45.1173293 8.8642,44.6486707 C8.2247814,44.1833049 7.9569907,43.3546463 8.20073488,42.600622 L12.8078279,28.3696463 L0.751781395,19.5726951 C0.113455814,19.1073293 -0.154334884,18.2808659 0.0883162791,17.5257439 C0.334246512,16.770622 1.03268837,16.258061 1.82403721,16.258061 L16.7263163,16.258061 L21.3301302,2.02818293 C21.5760605,1.27196341 22.2745023,0.761597561 23.0658512,0.761597561 C23.858293,0.761597561 24.560014,1.27196341 24.8026651,2.02818293 L29.405386,16.258061 L44.3076651,16.258061 C45.099014,16.258061 45.8018279,16.770622 46.043386,17.5257439 C46.2893163,18.2808659 46.0226186,19.1073293 45.381014,19.5726951 L33.3249674,28.3696463 L37.9320605,42.600622 C38.1779907,43.3546463 37.9102,44.1833049 37.2685953,44.6486707 C36.9505256,44.8835488 36.5734326,44.9987927 36.1952465,44.9987927" id="Fill-1" fill="#3777BB" sketch:type="MSShapeGroup" mask="url(#mask-2)"></path>
        </g>
    </g>
</svg>