<?xml version="1.0" encoding="UTF-8" standalone="no"?>
<svg width="45px" height="45px" viewBox="0 0 45 45" version="1.1" xmlns="http://www.w3.org/2000/svg" xmlns:xlink="http://www.w3.org/1999/xlink" xmlns:sketch="http://www.bohemiancoding.com/sketch/ns">
    <!-- Generator: Sketch 3.4.4 (17249) - http://www.bohemiancoding.com/sketch -->
    <title>fusee</title>
    <desc>Created with Sketch.</desc>
    <defs>
        <path id="path-1" d="M0,0.749 L44.245,0.749 L44.245,45 L0,45"></path>
    </defs>
    <g id="Page-1" stroke="none" stroke-width="1" fill="none" fill-rule="evenodd" sketch:type="MSPage">
        <g id="fusee" sketch:type="MSArtboardGroup">
            <mask id="mask-2" sketch:name="Clip 2" fill="white">
                <use xlink:href="#path-1"></use>
            </mask>
            <g id="Clip-2"></g>
            <path d="M17.1069,27.8936 C17.3479,27.9186 17.5949,27.9406 17.8529,27.9586 C18.4139,27.9996 18.9299,28.2776 19.2689,28.7266 C21.4709,31.6336 22.5349,35.1836 22.3689,38.7016 C24.8519,36.0816 25.8839,32.4076 25.1359,28.8056 C24.9439,27.8746 25.4499,26.9396 26.3349,26.5946 C29.2079,25.4716 31.7689,23.7966 33.9459,21.6186 C38.5839,16.9806 40.9239,10.6356 40.2309,4.7686 C34.3459,4.0736 27.9879,6.4476 23.3829,11.0516 C21.2039,13.2276 19.5289,15.7886 18.4029,18.6626 C18.0579,19.5486 17.1249,20.0506 16.1949,19.8606 C12.6339,19.1306 8.9019,20.1656 6.3009,22.6246 C9.8359,22.4596 13.4269,23.5746 16.2719,25.7316 C16.7199,26.0696 16.9999,26.5846 17.0399,27.1426 C17.0589,27.4046 17.0819,27.6536 17.1069,27.8936 M19.4199,44.9996 C18.9149,44.9996 18.4159,44.8026 18.0429,44.4286 C17.4809,43.8676 17.3179,43.0246 17.6239,42.2946 C19.0679,38.8676 18.6819,34.9076 16.6419,31.7646 C16.0729,31.7016 15.5359,31.6186 15.0179,31.5166 C14.2459,31.3636 13.6399,30.7606 13.4859,29.9886 C13.3829,29.4766 13.3019,28.9396 13.2369,28.3596 C10.1279,26.3436 6.0649,25.9566 2.7039,27.3686 C1.9749,27.6736 1.1299,27.5106 0.5709,26.9496 C0.0109,26.3906 -0.1541,25.5466 0.1519,24.8156 C0.9039,23.0286 1.9719,21.4356 3.3269,20.0806 C6.4859,16.9236 10.8809,15.3496 15.3879,15.8016 C16.6779,13.0026 18.4369,10.4826 20.6269,8.2946 C25.4209,3.4996 31.8099,0.7486 38.1559,0.7486 C39.5669,0.7486 40.9649,0.8856 42.3149,1.1546 C43.0859,1.3086 43.6899,1.9126 43.8439,2.6836 C45.3369,10.1646 42.5999,18.4766 36.7019,24.3746 C34.5139,26.5646 31.9949,28.3206 29.1979,29.6096 C29.6449,34.0776 28.1009,38.4916 24.9169,41.6726 C23.5729,43.0216 21.9769,44.0906 20.1759,44.8476 C19.9309,44.9506 19.6759,44.9996 19.4199,44.9996" id="Fill-1" fill="#3777BB" sketch:type="MSShapeGroup" mask="url(#mask-2)"></path>
            <path d="M31.7441,10.3257 C30.9641,10.3257 30.2291,10.6307 29.6751,11.1837 C28.5371,12.3237 28.5391,14.1787 29.6791,15.3197 C30.7831,16.4197 32.7091,16.4217 33.8131,15.3177 C34.3651,14.7657 34.6691,14.0317 34.6691,13.2507 C34.6691,12.4687 34.3651,11.7347 33.8131,11.1837 C33.2611,10.6307 32.5271,10.3257 31.7441,10.3257 M31.7451,18.1217 C30.4461,18.1217 29.2221,17.6167 28.3011,16.6987 C26.4021,14.7977 26.4001,11.7057 28.2971,9.8047 C30.1471,7.9617 33.3511,7.9657 35.1911,9.8047 C36.1111,10.7247 36.6181,11.9487 36.6181,13.2507 C36.6181,14.5527 36.1111,15.7767 35.1911,16.6967 C34.2711,17.6157 33.0481,18.1217 31.7451,18.1217" id="Fill-4" fill="#3777BB" sketch:type="MSShapeGroup" mask="url(#mask-2)"></path>
            <path d="M9.5864,38.3091 C8.9394,38.3091 8.2924,38.2571 7.6504,38.1501 C7.2394,38.0821 6.9184,37.7601 6.8504,37.3491 C6.1794,33.3431 7.6334,29.0961 10.7384,25.9881 C11.1184,25.6081 11.7354,25.6081 12.1154,25.9881 C12.4964,26.3681 12.4964,26.9861 12.1154,27.3671 C9.6384,29.8431 8.3854,33.1431 8.6804,36.3191 C11.8684,36.6161 15.1534,35.3561 17.6314,32.8791 C18.0124,32.5001 18.6294,32.4991 19.0094,32.8801 C19.3904,33.2621 19.3904,33.8781 19.0094,34.2591 C16.3984,36.8661 12.9854,38.3091 9.5864,38.3091" id="Fill-6" fill="#3777BB" sketch:type="MSShapeGroup" mask="url(#mask-2)"></path>
        </g>
    </g>
</svg>