<?xml version="1.0" encoding="UTF-8" standalone="no"?>
<svg width="91px" height="69px" viewBox="0 0 91 69" version="1.1" xmlns="http://www.w3.org/2000/svg" xmlns:xlink="http://www.w3.org/1999/xlink" xmlns:sketch="http://www.bohemiancoding.com/sketch/ns">
    <!-- Generator: Sketch 3.4.4 (17249) - http://www.bohemiancoding.com/sketch -->
    <title>Artboard</title>
    <desc>Created with Sketch.</desc>
    <defs></defs>
    <g id="Page-1" stroke="none" stroke-width="1" fill="none" fill-rule="evenodd" sketch:type="MSPage">
        <g id="Artboard" sketch:type="MSArtboardGroup" fill="#FFFFFF">
            <g id="noun_41038_cc" sketch:type="MSLayerGroup">
                <path d="M78.59,13.013 C73.232,8.144 70.665,4.48 63.221,7.35 C62.223,9.636 62.223,12.343 63.221,14.631 C66.638,14.811 68.443,13.382 71.308,13.013 C72.572,16.061 76.127,18.545 75.032,23.957 C74.856,24.01 74.681,24.051 74.509,24.1 C73.568,23.618 72.397,23.326 71.123,23.326 C69.305,23.326 67.695,23.909 66.669,24.811 C64.481,24.738 62.051,23.745 59.137,24.334 C56.657,24.764 54.467,26.91 53.16,26.071 C51.697,24.972 50.947,24.76 50.594,23.874 C50.146,22.723 50.336,23.037 50.336,20.84 C50.336,18.275 53.237,14.837 53.263,14.142 C53.447,13.654 53.555,13.029 53.555,12.337 C53.555,11.212 53.263,10.262 52.867,9.928 C52.508,7.804 51.92,4.469 51.088,3.114 C47.962,0.524 43.736,0.369 39.764,2.305 C38.508,3.71 37.701,7.383 37.254,9.801 C36.657,9.797 36.207,10.934 36.207,12.337 C36.207,13.544 36.541,14.553 36.991,14.81 C37.571,15.954 39.556,18.802 39.556,21.155 C39.556,22.514 39.66,23.037 38.877,24.241 C38.27,25.168 37.418,25.783 35.946,26.595 C32.586,23.157 29.378,23.403 22.922,25.054 C21.923,24.013 20.184,23.325 18.214,23.325 C16.66,23.325 15.257,23.748 14.239,24.434 C14.115,24.365 13.98,24.292 13.862,24.207 C13.19,19.222 17.726,15.508 19.541,13.012 C21.708,13.814 23.806,14.678 26.823,14.63 C27.57,11.454 28.586,11.622 27.633,8.157 C19.08,3.47 17.27,8.482 12.263,13.011 C8.094,16.78 4.092,19.763 1.786,23.911 C1.46,24.501 1.143,25.634 0.886,26.28 C0.562,27.101 -0.32,27.85 0.127,28.382 C0.546,28.872 5.773,33.467 9.302,35.305 C10.524,36.302 12.273,37.111 14.292,37.506 C16.132,37.868 17.899,37.829 19.338,37.469 C19.944,37.45 20.563,37.414 21.212,37.354 C21.313,38.284 21.522,39.256 21.86,40.228 C22.609,42.389 23.831,44.156 25.197,45.264 C25.338,45.553 25.489,45.844 25.635,46.13 C25.864,47.144 26.174,48.191 26.578,49.245 C27.434,51.478 28.561,53.414 29.77,54.877 C30.536,56.926 31.15,61.223 31.499,65.109 C35.562,66.97 40.077,68.005 44.862,68.005 C49.899,68.005 54.649,66.854 58.872,64.795 C59.241,60.667 59.768,56.44 60.399,54.668 C61.544,53.234 62.603,51.375 63.419,49.245 C63.823,48.19 64.136,47.146 64.362,46.134 C64.566,45.767 64.761,45.398 64.963,45.03 C66.219,43.915 67.328,42.245 68.029,40.228 C68.3,39.444 68.491,38.663 68.606,37.902 C68.7,37.693 68.794,37.487 68.882,37.278 C77.691,38.506 84.905,34.194 89.006,28.2 C89.328,27.731 89.511,27.505 89.913,26.762 C90.315,26.019 89.23,25.395 88.879,24.767 C88.61,24.286 88.337,23.821 88.059,23.374 C85.58,19.399 82.69,16.742 78.59,13.013 Z" id="Shape" sketch:type="MSShapeGroup"></path>
            </g>
        </g>
    </g>
</svg>