<?xml version="1.0" encoding="UTF-8" standalone="no"?>
<svg width="46px" height="46px" viewBox="0 0 46 46" version="1.1" xmlns="http://www.w3.org/2000/svg" xmlns:xlink="http://www.w3.org/1999/xlink" xmlns:sketch="http://www.bohemiancoding.com/sketch/ns">
    <!-- Generator: Sketch 3.4.4 (17249) - http://www.bohemiancoding.com/sketch -->
    <title>planet</title>
    <desc>Created with Sketch.</desc>
    <defs>
        <path id="path-1" d="M0,0.981333333 L45.0186667,0.981333333 L45.0186667,46 L0,46"></path>
    </defs>
    <g id="Page-1" stroke="none" stroke-width="1" fill="none" fill-rule="evenodd" sketch:type="MSPage">
        <g id="planet" sketch:type="MSArtboardGroup">
            <mask id="mask-2" sketch:name="Clip 2" fill="white">
                <use xlink:href="#path-1"></use>
            </mask>
            <g id="Clip-2"></g>
            <path d="M22.5093333,4.77265333 C12.1869333,4.77265333 3.7904,13.1691867 3.7904,23.4905644 C3.7904,33.8119422 12.1869333,42.2084756 22.5093333,42.2084756 C32.8317333,42.2084756 41.2282667,33.8119422 41.2282667,23.4905644 C41.2282667,13.1691867 32.8317333,4.77265333 22.5093333,4.77265333 M22.5093333,45.9998978 C10.0954667,45.9998978 0,35.9023867 0,23.4905644 C0,11.0787422 10.0954667,0.981231111 22.5093333,0.981231111 C34.9232,0.981231111 45.0186667,11.0787422 45.0186667,23.4905644 C45.0186667,35.9023867 34.9232,45.9998978 22.5093333,45.9998978" id="Fill-1" fill="#FFFFFF" sketch:type="MSShapeGroup" mask="url(#mask-2)"></path>
            <path d="M22.5093333,3.82433778 C16.4567556,3.82433778 11.5327111,12.6471378 11.5327111,23.4908711 C11.5327111,34.3346044 16.4567556,43.1574044 22.5093333,43.1574044 C28.5588444,43.1574044 33.4828889,34.3346044 33.4828889,23.4908711 C33.4828889,12.6471378 28.5588444,3.82433778 22.5093333,3.82433778 M22.5093333,45.0515822 C15.4120444,45.0515822 9.63751111,35.3803378 9.63751111,23.4908711 C9.63751111,11.6014044 15.4120444,1.92913778 22.5093333,1.92913778 C29.6025333,1.92913778 35.3780889,11.6014044 35.3780889,23.4908711 C35.3780889,35.3803378 29.6025333,45.0515822 22.5093333,45.0515822" id="Fill-4" fill="#FFFFFF" sketch:type="MSShapeGroup" mask="url(#mask-2)"></path>
            <path d="M23.4577511,3.84723556 L23.4577511,43.1353244 C33.8649956,42.6385244 42.1756622,34.0181244 42.1756622,23.49128 C42.1756622,12.9634133 33.8649956,4.34199111 23.4577511,3.84723556 M22.5091289,45.0519911 C21.9837067,45.0519911 21.5615289,44.6287911 21.5615289,44.1054133 L21.5615289,2.87714667 C21.5615289,2.35274667 21.9837067,1.92954667 22.5091289,1.92954667 C34.3975733,1.92954667 44.0708622,11.6018133 44.0708622,23.49128 C44.0708622,35.3807467 34.3975733,45.0519911 22.5091289,45.0519911" id="Fill-6" fill="#FFFFFF" sketch:type="MSShapeGroup" mask="url(#mask-2)"></path>
            <path d="M3.90172,29.8091244 L41.1126533,29.8091244 C41.8200311,27.7473022 42.1757644,25.6241467 42.1757644,23.4907689 C42.1757644,21.3563689 41.8200311,19.2321911 41.1126533,17.1713911 L3.90580889,17.1713911 C3.19843111,19.2321911 2.84372,21.3563689 2.84372,23.4907689 C2.84372,25.6231244 3.19843111,27.7452578 3.90172,29.8091244 M41.7791422,31.7043244 L3.23625333,31.7043244 C2.83963111,31.7043244 2.48798667,31.4589911 2.34794222,31.0899689 C1.41772,28.62028 0.947497778,26.0637022 0.947497778,23.4907689 C0.947497778,20.9137467 1.41772,18.3581911 2.35100889,15.8885022 C2.49207556,15.5184578 2.84372,15.2751689 3.23932,15.2751689 L41.7791422,15.2751689 C42.1757644,15.2751689 42.5274089,15.5184578 42.6684756,15.8885022 C43.6007422,18.3581911 44.0709644,20.9137467 44.0709644,23.4907689 C44.0709644,26.0688133 43.6007422,28.6253911 42.6684756,31.0920133 C42.5274089,31.4589911 42.1757644,31.7043244 41.7791422,31.7043244" id="Fill-8" fill="#FFFFFF" sketch:type="MSShapeGroup" mask="url(#mask-2)"></path>
        </g>
    </g>
</svg>